{"title":"The Devil Inside 2012 Cam XviD Feel-Free","uid":6973118,"size":664042767,"categoryP":"video","categoryS":"movies","magnet":"?xt=urn:btih:19018d438dd7de2601e941ca1daa979c03431ba0&amp;dn=The+Devil+Inside+2012+Cam+XviD+Feel-Free&amp;tr=udp%3A%2F%2Ftracker.openbittorrent.com%3A80&amp;tr=udp%3A%2F%2Fopen.demonii.com%3A1337&amp;tr=udp%3A%2F%2Ftracker.coppersurfer.tk%3A6969&amp;tr=udp%3A%2F%2Fexodus.desync.com%3A6969","seeders":0,"leechers":0,"uploader":null,"files":8,"time":1327153544,"description":" &lt;a href=&quot;http://img19.imageshack.us/img19/8784/vlcsnap2012012114h29m36.png&quot; rel=&quot;nofollow&quot; target=&quot;_NEW&quot;&gt;http://img19.imageshack.us/img19/8784/vlcsnap2012012114h29m36.png&lt;/a&gt; &lt;a href=&quot;\nhttp://img210.imageshack.us/img210/2516/vlcsnap2012012114h29m29.png&quot; rel=&quot;nofollow&quot; target=&quot;_NEW&quot;&gt;\nhttp://img210.imageshack.us/img210/2516/vlcsnap2012012114h29m29.png&lt;/a&gt; &lt;a href=&quot;\nhttp://img267.imageshack.us/img267/6061/vlcsnap2012012114h30m53.png&quot; rel=&quot;nofollow&quot; target=&quot;_NEW&quot;&gt;\nhttp://img267.imageshack.us/img267/6061/vlcsnap2012012114h30m53.png&lt;/a&gt;\nGenre: Horror | Thriller\nLanguage:English\nIMDb: http://www.imdb.com/title/tt1560985/\nSource:UnKnOwN Thanks!\nEncoder:Tony\n\nFormat : AVI\nFormat/Info : Audio Video Interleave\nFile size : 633 MiB\nDuration : 1h 15mn\nOverall bit rate : 1 171 Kbps\n\nVideo\nID : 0\nFormat : MPEG-4 Visual\nFormat profile : Advanced Simple@L5\nFormat settings, BVOP : 1\nFormat settings, QPel : No\nFormat settings, GMC : No warppoints\nFormat settings, Matrix : Default (H.263)\nCodec ID : XVID\nCodec ID/Hint : XviD\nDuration : 1h 15mn\nBit rate : 999 Kbps\nWidth : 640 pixels\nHeight : 272 pixels\nDisplay aspect ratio : 2.35:1\nFrame rate : 29.970 fps\nColor space : YUV\nChroma subsampling : 4:2:0\nBit depth : 8 bits\nScan type : Progressive\nCompression mode : Lossy\nBits/(Pixel*Frame) : 0.192\nStream size : 540 MiB (85%)\nWriting library : XviD 1.2.1 (UTC 2008-12-04)\n\nAudio\nID : 1\nFormat : AC-3\nFormat/Info : Audio Coding 3\nMode extension : CM (complete main)\nCodec ID : 2000\nDuration : 1h 15mn\nBit rate mode : Constant\nBit rate : 160 Kbps\nChannel(s) : 2 channels\nChannel positions : Front: L R\nSampling rate : 48.0 KHz\nBit depth : 16 bits\nCompression mode : Lossy\nStream size : 86.4 MiB (14%)\nAlignment : Aligned on interleaves\nInterleave, duration : 33 ms (1.00 video frame)\nInterleave, preload duration : 512 ms\n\n\nPlot:\nIn Italy, a woman becomes involved in a series of unauthorized exorcisms during her mission to discover what happened to her mother, who allegedly murdered three people during her own exorcism.","torrent":{"xt":"urn:btih:19018d438dd7de2601e941ca1daa979c03431ba0","amp;dn":"The+Devil+Inside+2012+Cam+XviD+Feel-Free","amp;tr":["udp%3A%2F%2Ftracker.openbittorrent.com%3A80","udp%3A%2F%2Fopen.demonii.com%3A1337","udp%3A%2F%2Ftracker.coppersurfer.tk%3A6969","udp%3A%2F%2Fexodus.desync.com%3A6969"],"infoHash":"19018d438dd7de2601e941ca1daa979c03431ba0","infoHashBuffer":{"type":"Buffer","data":[25,1,141,67,141,215,222,38,1,233,65,202,29,170,151,156,3,67,27,160]},"announce":[],"urlList":[]}}